<?xml version="1.0" encoding="iso-8859-1"?>
<!-- Generator: Adobe Illustrator 18.0.0, SVG Export Plug-In . SVG Version: 6.00 Build 0)  -->
<!DOCTYPE svg PUBLIC "-//W3C//DTD SVG 1.1//EN" "http://www.w3.org/Graphics/SVG/1.1/DTD/svg11.dtd">
<svg version="1.1" id="Capa_1" xmlns="http://www.w3.org/2000/svg" xmlns:xlink="http://www.w3.org/1999/xlink" x="0px" y="0px"
	 viewBox="0 0 458 458" style="enable-background:new 0 0 458 458;" xml:space="preserve">
<g>
	<path d="M111.938,135.598c11.046,0,20-8.954,20-20V21.597c0-11.046-8.954-20-20-20s-20,8.954-20,20v94.001
		C91.938,126.644,100.892,135.598,111.938,135.598z"/>
	<path d="M346.063,135.598c11.046,0,20-8.954,20-20V21.597c0-11.046-8.954-20-20-20s-20,8.954-20,20v94.001
		C326.063,126.644,335.017,135.598,346.063,135.598z"/>
	<path d="M443,82.403h-46.938c0,12.42,0,20.918,0,33.195c0,27.614-22.386,50-50,50c-27.614,0-50-22.386-50-50
		c0-12.281,0-20.771,0-33.195H161.938c0,12.42,0,20.918,0,33.195c0,27.614-22.386,50-50,50c-27.614,0-50-22.386-50-50
		c0-12.281,0-20.771,0-33.195H15c-8.284,0-15,6.716-15,15v89.641h458V97.403C458,89.119,451.284,82.403,443,82.403z"/>
	<path d="M0,441.403c0,8.284,6.716,15,15,15h428c8.284,0,15-6.716,15-15V227.044H0V441.403z M244.191,313.046
		c0-6.036,3.59-11.504,9.127-13.907c7.49-3.249,16.316-9.028,21.176-13.393c2.782-2.499,6.38-3.88,10.121-3.88h19.254
		c4.395,0,7.957,3.563,7.957,7.958v80.903h11.445c8.275,0,14.984,6.708,14.984,14.984c0,8.275-6.708,14.984-14.984,14.984h-59.934
		c-8.275,0-14.984-6.708-14.984-14.984c0-8.275,6.708-14.984,14.984-14.984h14.567V317.66c-2.163,2.886-6.797,6.077-12.243,8.754
		c-4.618,2.27-10.076,2.008-14.445-0.711c-4.369-2.718-7.025-7.501-7.025-12.647V313.046z M123.295,390.677
		c2.691-29.175,18.127-37.168,47.125-52.83c4.622-2.493,12.811-7.06,15.92-11.134c3.842-5.044,1.97-18.001-14.359-18.001
		c-5.549,0-11.094,1.106-17.704,5.967c-6.262,4.605-14.984,3.637-20.067-2.244l-0.594-0.688c-3.026-3.501-4.246-8.216-3.31-12.747
		s3.925-8.371,8.09-10.387c22.329-10.811,56.654-13.101,73.853,0.952c7.977,6.523,11.966,15.332,11.966,26.43
		c0,32.434-40.129,38.997-54.315,54.731h41.622c8.275,0,14.984,6.708,14.984,14.984c0,8.275-6.708,14.984-14.984,14.984h-79.1
		c-2.577,0-5.036-1.095-6.772-3C123.914,395.789,123.059,393.243,123.295,390.677z"/>
</g>
<g>
</g>
<g>
</g>
<g>
</g>
<g>
</g>
<g>
</g>
<g>
</g>
<g>
</g>
<g>
</g>
<g>
</g>
<g>
</g>
<g>
</g>
<g>
</g>
<g>
</g>
<g>
</g>
<g>
</g>
</svg>
