<?xml version="1.0" encoding="iso-8859-1"?>
<!-- Generator: Adobe Illustrator 17.1.0, SVG Export Plug-In . SVG Version: 6.00 Build 0)  -->
<!DOCTYPE svg PUBLIC "-//W3C//DTD SVG 1.1//EN" "http://www.w3.org/Graphics/SVG/1.1/DTD/svg11.dtd">
<svg version="1.1" id="Capa_1" xmlns="http://www.w3.org/2000/svg" xmlns:xlink="http://www.w3.org/1999/xlink" x="0px" y="0px"
	 viewBox="0 0 192.667 192.667" style="enable-background:new 0 0 192.667 192.667;" xml:space="preserve">
<path d="M23.5,192.667c-12.958,0-23.5-10.542-23.5-23.5s10.542-23.5,23.5-23.5c11.941,0,21.832,8.954,23.31,20.5h102.025
	c2.196,0,4.009-1.211,4.85-3.24c0.841-2.029,0.415-4.168-1.138-5.721L35.551,40.21c-3.278-3.278-4.213-7.976-2.438-12.259
	c1.774-4.283,5.756-6.944,10.393-6.944h102.293C147.047,9.216,157.051,0,169.167,0c12.958,0,23.5,10.542,23.5,23.5
	S182.125,47,169.167,47c-11.766,0-21.54-8.692-23.239-19.993H43.505c-2.196,0-4.009,1.211-4.85,3.24
	c-0.84,2.029-0.415,4.167,1.138,5.721l116.996,116.996c3.278,3.278,4.213,7.976,2.438,12.259s-5.757,6.944-10.393,6.944H46.81
	C45.332,183.713,35.441,192.667,23.5,192.667z M23.5,151.667c-9.649,0-17.5,7.851-17.5,17.5s7.851,17.5,17.5,17.5
	s17.5-7.851,17.5-17.5S33.149,151.667,23.5,151.667z M169.167,6c-9.649,0-17.5,7.851-17.5,17.5s7.851,17.5,17.5,17.5
	s17.5-7.851,17.5-17.5S178.816,6,169.167,6z M32.001,179.784c-1.171,0-2.283-0.69-2.766-1.837l-1.401-3.329h-8.489l-1.634,3.449
	c-0.71,1.498-2.499,2.135-3.995,1.427c-1.497-0.709-2.137-2.499-1.427-3.996l2.416-5.101c0.019-0.042,0.038-0.083,0.059-0.124
	l6.525-13.775c0.507-1.069,1.582-1.747,2.776-1.715c1.184,0.026,2.24,0.745,2.699,1.835l5.804,13.783
	c0.016,0.036,0.03,0.071,0.045,0.107l2.151,5.11c0.644,1.527-0.073,3.286-1.601,3.929C32.784,179.708,32.39,179.784,32.001,179.784z
	 M22.187,168.618h3.121l-1.469-3.487L22.187,168.618z M171.174,36.206h-6.801c-1.657,0-3-1.343-3-3V12.872c0-1.657,1.343-3,3-3h5.25
	c4.365,0,7.917,3.552,7.917,7.917v0.333c0,1.442-0.388,2.794-1.063,3.96c1.604,1.45,2.614,3.546,2.614,5.874v0.333
	C179.091,32.654,175.539,36.206,171.174,36.206z M167.373,30.206h3.801c1.057,0,1.917-0.86,1.917-1.917v-0.333
	c0-1.057-0.86-1.917-1.917-1.917h-3.801V30.206z M167.373,20.039h2.25c1.057,0,1.917-0.86,1.917-1.917v-0.333
	c0-1.057-0.86-1.917-1.917-1.917h-2.25V20.039z"/>
<g>
</g>
<g>
</g>
<g>
</g>
<g>
</g>
<g>
</g>
<g>
</g>
<g>
</g>
<g>
</g>
<g>
</g>
<g>
</g>
<g>
</g>
<g>
</g>
<g>
</g>
<g>
</g>
<g>
</g>
</svg>
