<?xml version="1.0" encoding="utf-8"?>
<!-- Generator: Adobe Illustrator 27.0.1, SVG Export Plug-In . SVG Version: 6.00 Build 0)  -->
<svg version="1.1" id="Capa_1" xmlns="http://www.w3.org/2000/svg" xmlns:xlink="http://www.w3.org/1999/xlink" x="0px" y="0px"
	 viewBox="0 0 282.4 301.6" style="enable-background:new 0 0 282.4 301.6;" xml:space="preserve">
<g>
	<path d="M30,15c0-8.3-6.7-15-15-15S0,6.7,0,15v271.6c0,8.3,6.7,15,15,15s15-6.7,15-15V167.9c0,0,0,0,0,0L30,15z"/>
	<path d="M229.3,82.1c-2.6-3.5-2.6-8.2,0.1-11.4c14.2-16.9,28.8-30.8,42.5-41.9c12.1-9.8-3.7-16.9-7.2-18.4
		C192.4-20,120.2,43.6,48,24.3v150.3c72.3,19.4,144.6-44.5,217-13.7c3.5,1.5,6.8,1.1,8.3-1.2c1.6-2.3,1.2-6.3-1-10.3
		C257.9,123.4,243.6,101.5,229.3,82.1z"/>
</g>
</svg>
