<?xml version="1.0" encoding="utf-8"?>
<!-- Generator: Adobe Illustrator 27.0.1, SVG Export Plug-In . SVG Version: 6.00 Build 0)  -->
<svg version="1.1" id="Capa_1" xmlns="http://www.w3.org/2000/svg" xmlns:xlink="http://www.w3.org/1999/xlink" x="0px" y="0px"
	 viewBox="0 0 323 515" style="enable-background:new 0 0 323 515;" xml:space="preserve">
<g>
	<polygon points="193.6,44.9 362.3,21.1 358.1,0 172,26.2 138.7,172.7 163.5,176.8 	"/>
	<path d="M-20,239h31l12.1,105.3c10.4-2.8,22.5-5,35.5-5c10.1,0,19.9,1.3,29.1,4c31.7,9.1,55.4,33.1,70.6,71.4
		c11.6,29.4,26.8,44.3,45.3,44.3c24.9-0.3,54.3-26.3,72.4-52.1L292.9,239h29.2v-50H-20V239z"/>
	<path d="M204.1,480.2l-0.8,0c-30.3,0-53.4-19.8-68.8-58.9c-12.5-31.7-30.9-51.2-54.8-58c-6.5-1.9-13.5-2.8-20.9-2.8
		c-12.3,0-23.9,2.6-33.2,5.6L42,508.3c0.3,3.8,4,6.7,8.4,6.7h207c4.5,0,8.2-3,8.4-6.8l6.1-60.5C252.6,465.8,228.9,479.9,204.1,480.2
		z"/>
</g>
</svg>
